<?xml version="1.0" encoding="UTF-8" standalone="no"?>
<svg
   width="800.0px"
   height="600.0px"
   viewBox="0 0 800.0 600.0"
   version="1.1"
   id="SVGRoot"
   xmlns:xlink="http://www.w3.org/1999/xlink"
   xmlns="http://www.w3.org/2000/svg"
   xmlns:svg="http://www.w3.org/2000/svg">
  <defs
     id="defs132" />
  <g
     id="layer1">
    <ellipse
       style="display:none;fill:none;fill-opacity:1;stroke:#ff0000;stroke-width:4.033;stroke-linecap:round;stroke-linejoin:round;stroke-dasharray:none;stroke-opacity:1;paint-order:markers fill stroke"
       id="path49411"
       cx="400"
       cy="298.86356"
       rx="6.6020966"
       ry="6.920104" />
    <path
       style="display:inline;fill:#fbfef1;fill-opacity:1;stroke:#7ca766;stroke-width:4.33674;stroke-linecap:round;stroke-linejoin:round;stroke-dasharray:none;stroke-opacity:1;paint-order:markers fill stroke"
       id="path366"
       d="M 397.20059,448.97032 113.70782,470.21515 -79.656918,261.81751 -37.286021,-19.294931 208.91436,-161.43877 473.55031,-57.576797 557.34557,214.0808 Z"
       transform="matrix(1.6766867,0.12284374,-0.12284374,1.6766867,29.382036,-4.6633063)" />
    <use
       x="0"
       y="0"
       xlink:href="#path366"
       id="use50616"
       style="fill:#fbfef1;fill-opacity:1" />
    <use
       x="0"
       y="0"
       xlink:href="#path366"
       transform="matrix(0.94250897,0.11906658,-0.11906658,0.94250897,58.869533,-30.366234)"
       id="use50618"
       style="fill:#fbfef1;fill-opacity:1" />
    <use
       x="0"
       y="0"
       xlink:href="#use50618"
       id="use50984"
       style="fill:#fbfef1;fill-opacity:1" />
    <use
       x="0"
       y="0"
       xlink:href="#use50618"
       transform="matrix(0.94250897,0.11906658,-0.11906658,0.94250897,58.869533,-30.366234)"
       id="use50986"
       style="fill:#fbfef1;fill-opacity:1" />
    <use
       x="0"
       y="0"
       xlink:href="#use50986"
       id="use51716"
       style="fill:#fbfef1;fill-opacity:1" />
    <use
       x="0"
       y="0"
       xlink:href="#use50986"
       transform="matrix(0.94250897,0.11906658,-0.11906658,0.94250897,58.869533,-30.366234)"
       id="use51718"
       style="fill:#fbfef1;fill-opacity:1" />
    <use
       x="0"
       y="0"
       xlink:href="#use51718"
       id="use52448"
       style="fill:#fbfef1;fill-opacity:1" />
    <use
       x="0"
       y="0"
       xlink:href="#use51718"
       transform="matrix(0.94250897,0.11906658,-0.11906658,0.94250897,58.869533,-30.366234)"
       id="use52450"
       style="fill:#fbfef1;fill-opacity:1" />
    <use
       x="0"
       y="0"
       xlink:href="#use52450"
       id="use53180"
       style="fill:#fbfef1;fill-opacity:1" />
    <use
       x="0"
       y="0"
       xlink:href="#use52450"
       transform="matrix(0.94250897,0.11906658,-0.11906658,0.94250897,58.869533,-30.366234)"
       id="use53182"
       style="fill:#fbfef1;fill-opacity:1" />
    <use
       x="0"
       y="0"
       xlink:href="#use53182"
       id="use53912"
       style="fill:#fbfef1;fill-opacity:1" />
    <use
       x="0"
       y="0"
       xlink:href="#use53182"
       transform="matrix(0.94250897,0.11906658,-0.11906658,0.94250897,58.869533,-30.366234)"
       id="use53914"
       style="fill:#fbfef1;fill-opacity:1" />
    <use
       x="0"
       y="0"
       xlink:href="#use53914"
       id="use54644"
       style="fill:#fbfef1;fill-opacity:1" />
    <use
       x="0"
       y="0"
       xlink:href="#use53914"
       transform="matrix(0.94250897,0.11906658,-0.11906658,0.94250897,58.869533,-30.366234)"
       id="use54646"
       style="fill:#fbfef1;fill-opacity:1" />
    <use
       x="0"
       y="0"
       xlink:href="#use54646"
       id="use55376"
       style="fill:#fbfef1;fill-opacity:1" />
    <use
       x="0"
       y="0"
       xlink:href="#use54646"
       transform="matrix(0.94250897,0.11906658,-0.11906658,0.94250897,58.869533,-30.366234)"
       id="use55378"
       style="fill:#fbfef1;fill-opacity:1" />
    <use
       x="0"
       y="0"
       xlink:href="#use55378"
       id="use56108"
       style="fill:#fbfef1;fill-opacity:1" />
    <use
       x="0"
       y="0"
       xlink:href="#use55378"
       transform="matrix(0.94250897,0.11906658,-0.11906658,0.94250897,58.869533,-30.366234)"
       id="use56110"
       style="fill:#fbfef1;fill-opacity:1" />
    <use
       x="0"
       y="0"
       xlink:href="#use56110"
       id="use56840"
       style="fill:#fbfef1;fill-opacity:1" />
    <use
       x="0"
       y="0"
       xlink:href="#use56110"
       transform="matrix(0.94250897,0.11906658,-0.11906658,0.94250897,58.869533,-30.366234)"
       id="use56842"
       style="fill:#fbfef1;fill-opacity:1" />
    <use
       x="0"
       y="0"
       xlink:href="#use56842"
       id="use57572"
       style="fill:#fbfef1;fill-opacity:1" />
    <use
       x="0"
       y="0"
       xlink:href="#use56842"
       transform="matrix(0.94250897,0.11906658,-0.11906658,0.94250897,58.869533,-30.366234)"
       id="use57574"
       style="fill:#fbfef1;fill-opacity:1" />
    <use
       x="0"
       y="0"
       xlink:href="#use57574"
       id="use58304"
       style="fill:#fbfef1;fill-opacity:1" />
    <use
       x="0"
       y="0"
       xlink:href="#use57574"
       transform="matrix(0.94250897,0.11906658,-0.11906658,0.94250897,58.869533,-30.366234)"
       id="use58306"
       style="fill:#fbfef1;fill-opacity:1" />
    <use
       x="0"
       y="0"
       xlink:href="#use58306"
       id="use59036"
       style="fill:#fbfef1;fill-opacity:1" />
    <use
       x="0"
       y="0"
       xlink:href="#use58306"
       transform="matrix(0.94250897,0.11906658,-0.11906658,0.94250897,58.869533,-30.366234)"
       id="use59038"
       style="fill:#fbfef1;fill-opacity:1" />
    <use
       x="0"
       y="0"
       xlink:href="#use59038"
       id="use59768"
       style="fill:#fbfef1;fill-opacity:1" />
    <use
       x="0"
       y="0"
       xlink:href="#use59038"
       transform="matrix(0.94250897,0.11906658,-0.11906658,0.94250897,58.869533,-30.366234)"
       id="use59770"
       style="fill:#fbfef1;fill-opacity:1" />
    <use
       x="0"
       y="0"
       xlink:href="#use59770"
       id="use60500"
       style="fill:#fbfef1;fill-opacity:1" />
    <use
       x="0"
       y="0"
       xlink:href="#use59770"
       transform="matrix(0.94250897,0.11906658,-0.11906658,0.94250897,58.869533,-30.366234)"
       id="use60502"
       style="fill:#fbfef1;fill-opacity:1" />
    <use
       x="0"
       y="0"
       xlink:href="#use60502"
       id="use61232"
       style="fill:#fbfef1;fill-opacity:1" />
    <use
       x="0"
       y="0"
       xlink:href="#use60502"
       transform="matrix(0.94250897,0.11906658,-0.11906658,0.94250897,58.869533,-30.366234)"
       id="use61234"
       style="fill:#fbfef1;fill-opacity:1" />
    <use
       x="0"
       y="0"
       xlink:href="#use61234"
       id="use61964"
       style="fill:#fbfef1;fill-opacity:1" />
    <use
       x="0"
       y="0"
       xlink:href="#use61234"
       transform="matrix(0.94250897,0.11906658,-0.11906658,0.94250897,58.869533,-30.366234)"
       id="use61966"
       style="fill:#fbfef1;fill-opacity:1" />
    <use
       x="0"
       y="0"
       xlink:href="#use61966"
       id="use62696"
       style="fill:#fbfef1;fill-opacity:1" />
    <use
       x="0"
       y="0"
       xlink:href="#use61966"
       transform="matrix(0.94250897,0.11906658,-0.11906658,0.94250897,58.869533,-30.366234)"
       id="use62698"
       style="fill:#fbfef1;fill-opacity:1" />
    <use
       x="0"
       y="0"
       xlink:href="#use62698"
       id="use63428"
       style="fill:#fbfef1;fill-opacity:1" />
    <use
       x="0"
       y="0"
       xlink:href="#use62698"
       transform="matrix(0.94250897,0.11906658,-0.11906658,0.94250897,58.869533,-30.366234)"
       id="use63430"
       style="fill:#fbfef1;fill-opacity:1" />
    <use
       x="0"
       y="0"
       xlink:href="#use63430"
       id="use64160"
       style="fill:#fbfef1;fill-opacity:1" />
    <use
       x="0"
       y="0"
       xlink:href="#use63430"
       transform="matrix(0.94250897,0.11906658,-0.11906658,0.94250897,58.869533,-30.366234)"
       id="use64162"
       style="fill:#fbfef1;fill-opacity:1" />
    <use
       x="0"
       y="0"
       xlink:href="#use64162"
       id="use64892"
       style="fill:#fbfef1;fill-opacity:1" />
    <use
       x="0"
       y="0"
       xlink:href="#use64162"
       transform="matrix(0.94250897,0.11906658,-0.11906658,0.94250897,58.869533,-30.366234)"
       id="use64894"
       style="fill:#fbfef1;fill-opacity:1" />
    <use
       x="0"
       y="0"
       xlink:href="#use64894"
       id="use65624"
       style="fill:#fbfef1;fill-opacity:1" />
    <use
       x="0"
       y="0"
       xlink:href="#use64894"
       transform="matrix(0.94250897,0.11906658,-0.11906658,0.94250897,58.869533,-30.366234)"
       id="use65626"
       style="fill:#fbfef1;fill-opacity:1" />
    <use
       x="0"
       y="0"
       xlink:href="#use65626"
       id="use66356"
       style="fill:#fbfef1;fill-opacity:1" />
    <use
       x="0"
       y="0"
       xlink:href="#use65626"
       transform="matrix(0.94250897,0.11906658,-0.11906658,0.94250897,58.869533,-30.366234)"
       id="use66358"
       style="fill:#fbfef1;fill-opacity:1" />
    <use
       x="0"
       y="0"
       xlink:href="#use66358"
       id="use67088"
       style="fill:#fbfef1;fill-opacity:1" />
    <use
       x="0"
       y="0"
       xlink:href="#use66358"
       transform="matrix(0.94250897,0.11906658,-0.11906658,0.94250897,58.869533,-30.366234)"
       id="use67090"
       style="fill:#fbfef1;fill-opacity:1" />
    <use
       x="0"
       y="0"
       xlink:href="#use67090"
       id="use67820"
       style="fill:#fbfef1;fill-opacity:1" />
    <use
       x="0"
       y="0"
       xlink:href="#use67090"
       transform="matrix(0.94250897,0.11906658,-0.11906658,0.94250897,58.869533,-30.366234)"
       id="use67822"
       style="fill:#fbfef1;fill-opacity:1" />
    <use
       x="0"
       y="0"
       xlink:href="#use67822"
       id="use68552"
       style="fill:#fbfef1;fill-opacity:1" />
    <use
       x="0"
       y="0"
       xlink:href="#use67822"
       transform="matrix(0.94250897,0.11906658,-0.11906658,0.94250897,58.869533,-30.366234)"
       id="use68554"
       style="fill:#fbfef1;fill-opacity:1" />
    <use
       x="0"
       y="0"
       xlink:href="#use68554"
       id="use69284"
       style="fill:#fbfef1;fill-opacity:1" />
    <use
       x="0"
       y="0"
       xlink:href="#use68554"
       transform="matrix(0.94250897,0.11906658,-0.11906658,0.94250897,58.869533,-30.366234)"
       id="use69286"
       style="fill:#fbfef1;fill-opacity:1" />
    <use
       x="0"
       y="0"
       xlink:href="#use69286"
       id="use70016"
       style="fill:#fbfef1;fill-opacity:1" />
    <use
       x="0"
       y="0"
       xlink:href="#use69286"
       transform="matrix(0.94250897,0.11906658,-0.11906658,0.94250897,58.869533,-30.366234)"
       id="use70018"
       style="fill:#fbfef1;fill-opacity:1" />
    <use
       x="0"
       y="0"
       xlink:href="#use70018"
       id="use70748"
       style="fill:#fbfef1;fill-opacity:1" />
    <use
       x="0"
       y="0"
       xlink:href="#use70018"
       transform="matrix(0.94250897,0.11906658,-0.11906658,0.94250897,58.869533,-30.366234)"
       id="use70750"
       style="fill:#fbfef1;fill-opacity:1" />
    <use
       x="0"
       y="0"
       xlink:href="#use70750"
       id="use71480"
       style="fill:#fbfef1;fill-opacity:1" />
    <use
       x="0"
       y="0"
       xlink:href="#use70750"
       transform="matrix(0.94250897,0.11906658,-0.11906658,0.94250897,58.869533,-30.366234)"
       id="use71482"
       style="fill:#fbfef1;fill-opacity:1" />
    <use
       x="0"
       y="0"
       xlink:href="#use71482"
       id="use72212"
       style="fill:#fbfef1;fill-opacity:1" />
    <use
       x="0"
       y="0"
       xlink:href="#use71482"
       transform="matrix(0.94250897,0.11906658,-0.11906658,0.94250897,58.869533,-30.366234)"
       id="use72214"
       style="fill:#fbfef1;fill-opacity:1" />
    <use
       x="0"
       y="0"
       xlink:href="#use72214"
       id="use72944"
       style="fill:#fbfef1;fill-opacity:1" />
    <use
       x="0"
       y="0"
       xlink:href="#use72214"
       transform="matrix(0.94250897,0.11906658,-0.11906658,0.94250897,58.869533,-30.366234)"
       id="use72946"
       style="fill:#fbfef1;fill-opacity:1" />
    <use
       x="0"
       y="0"
       xlink:href="#use72946"
       id="use73676"
       style="fill:#fbfef1;fill-opacity:1" />
    <use
       x="0"
       y="0"
       xlink:href="#use72946"
       transform="matrix(0.94250897,0.11906658,-0.11906658,0.94250897,58.869533,-30.366234)"
       id="use73678"
       style="fill:#fbfef1;fill-opacity:1" />
    <use
       x="0"
       y="0"
       xlink:href="#use73678"
       id="use74408"
       style="fill:#fbfef1;fill-opacity:1" />
    <use
       x="0"
       y="0"
       xlink:href="#use73678"
       transform="matrix(0.94250897,0.11906658,-0.11906658,0.94250897,58.869533,-30.366234)"
       id="use74410"
       style="fill:#fbfef1;fill-opacity:1" />
    <use
       x="0"
       y="0"
       xlink:href="#use74410"
       id="use75140"
       style="fill:#fbfef1;fill-opacity:1" />
    <use
       x="0"
       y="0"
       xlink:href="#use74410"
       transform="matrix(0.94250897,0.11906658,-0.11906658,0.94250897,58.869533,-30.366234)"
       id="use75142"
       style="fill:#fbfef1;fill-opacity:1" />
    <use
       x="0"
       y="0"
       xlink:href="#use75142"
       id="use75872"
       style="fill:#fbfef1;fill-opacity:1" />
    <use
       x="0"
       y="0"
       xlink:href="#use75142"
       transform="matrix(0.94250897,0.11906658,-0.11906658,0.94250897,58.869533,-30.366234)"
       id="use75874"
       style="fill:#fbfef1;fill-opacity:1" />
    <use
       x="0"
       y="0"
       xlink:href="#use75874"
       id="use76604"
       style="fill:#fbfef1;fill-opacity:1" />
    <use
       x="0"
       y="0"
       xlink:href="#use75874"
       transform="matrix(0.94250897,0.11906658,-0.11906658,0.94250897,58.869533,-30.366234)"
       id="use76606"
       style="fill:#fbfef1;fill-opacity:1" />
    <use
       x="0"
       y="0"
       xlink:href="#use76606"
       id="use77336"
       style="fill:#fbfef1;fill-opacity:1" />
    <use
       x="0"
       y="0"
       xlink:href="#use76606"
       transform="matrix(0.94250897,0.11906658,-0.11906658,0.94250897,58.869533,-30.366234)"
       id="use77338"
       style="fill:#fbfef1;fill-opacity:1" />
    <use
       x="0"
       y="0"
       xlink:href="#use77338"
       id="use78068"
       style="fill:#fbfef1;fill-opacity:1" />
    <use
       x="0"
       y="0"
       xlink:href="#use77338"
       transform="matrix(0.94250897,0.11906658,-0.11906658,0.94250897,58.869533,-30.366234)"
       id="use78070"
       style="fill:#fbfef1;fill-opacity:1" />
    <use
       x="0"
       y="0"
       xlink:href="#use78070"
       id="use78800"
       style="fill:#fbfef1;fill-opacity:1" />
    <use
       x="0"
       y="0"
       xlink:href="#use78070"
       transform="matrix(0.94250897,0.11906658,-0.11906658,0.94250897,58.869533,-30.366234)"
       id="use78802"
       style="fill:#fbfef1;fill-opacity:1" />
    <use
       x="0"
       y="0"
       xlink:href="#use78802"
       id="use79532"
       style="fill:#fbfef1;fill-opacity:1" />
    <use
       x="0"
       y="0"
       xlink:href="#use78802"
       transform="matrix(0.94250897,0.11906658,-0.11906658,0.94250897,58.869533,-30.366234)"
       id="use79534"
       style="fill:#fbfef1;fill-opacity:1" />
    <use
       x="0"
       y="0"
       xlink:href="#use79534"
       id="use80264"
       style="fill:#fbfef1;fill-opacity:1" />
    <use
       x="0"
       y="0"
       xlink:href="#use79534"
       transform="matrix(0.94250897,0.11906658,-0.11906658,0.94250897,58.869533,-30.366234)"
       id="use80266"
       style="fill:#fbfef1;fill-opacity:1" />
    <use
       x="0"
       y="0"
       xlink:href="#use80266"
       id="use80996"
       style="fill:#fbfef1;fill-opacity:1" />
    <use
       x="0"
       y="0"
       xlink:href="#use80266"
       transform="matrix(0.94250897,0.11906658,-0.11906658,0.94250897,58.869533,-30.366234)"
       id="use80998"
       style="fill:#fbfef1;fill-opacity:1" />
    <use
       x="0"
       y="0"
       xlink:href="#use80998"
       id="use81728"
       style="fill:#fbfef1;fill-opacity:1" />
    <use
       x="0"
       y="0"
       xlink:href="#use80998"
       transform="matrix(0.94250897,0.11906658,-0.11906658,0.94250897,58.869533,-30.366234)"
       id="use81730"
       style="fill:#fbfef1;fill-opacity:1" />
    <use
       x="0"
       y="0"
       xlink:href="#use81730"
       id="use82460"
       style="fill:#fbfef1;fill-opacity:1" />
    <use
       x="0"
       y="0"
       xlink:href="#use81730"
       transform="matrix(0.94250897,0.11906658,-0.11906658,0.94250897,58.869533,-30.366234)"
       id="use82462"
       style="fill:#fbfef1;fill-opacity:1" />
    <use
       x="0"
       y="0"
       xlink:href="#use82462"
       id="use83192"
       style="fill:#fbfef1;fill-opacity:1" />
    <use
       x="0"
       y="0"
       xlink:href="#use82462"
       transform="matrix(0.94250897,0.11906658,-0.11906658,0.94250897,58.869533,-30.366234)"
       id="use83194"
       style="fill:#fbfef1;fill-opacity:1" />
    <use
       x="0"
       y="0"
       xlink:href="#use83194"
       id="use83924"
       style="fill:#fbfef1;fill-opacity:1" />
    <use
       x="0"
       y="0"
       xlink:href="#use83194"
       transform="matrix(0.94250897,0.11906658,-0.11906658,0.94250897,58.869533,-30.366234)"
       id="use83926"
       style="fill:#fbfef1;fill-opacity:1" />
    <use
       x="0"
       y="0"
       xlink:href="#use83926"
       id="use84656"
       style="fill:#fbfef1;fill-opacity:1" />
    <use
       x="0"
       y="0"
       xlink:href="#use83926"
       transform="matrix(0.94250897,0.11906658,-0.11906658,0.94250897,58.869533,-30.366234)"
       id="use84658"
       style="fill:#fbfef1;fill-opacity:1" />
    <use
       x="0"
       y="0"
       xlink:href="#use84658"
       id="use85388"
       style="fill:#fbfef1;fill-opacity:1" />
    <use
       x="0"
       y="0"
       xlink:href="#use84658"
       transform="matrix(0.94250897,0.11906658,-0.11906658,0.94250897,58.869533,-30.366234)"
       id="use85390"
       style="fill:#fbfef1;fill-opacity:1" />
    <use
       x="0"
       y="0"
       xlink:href="#use85390"
       id="use86120"
       style="fill:#fbfef1;fill-opacity:1" />
    <use
       x="0"
       y="0"
       xlink:href="#use85390"
       transform="matrix(0.94250897,0.11906658,-0.11906658,0.94250897,58.869533,-30.366234)"
       id="use86122"
       style="fill:#fbfef1;fill-opacity:1" />
    <use
       x="0"
       y="0"
       xlink:href="#use86122"
       id="use86852"
       style="fill:#fbfef1;fill-opacity:1" />
    <use
       x="0"
       y="0"
       xlink:href="#use86122"
       transform="matrix(0.94250897,0.11906658,-0.11906658,0.94250897,58.869533,-30.366234)"
       id="use86854"
       style="fill:#fbfef1;fill-opacity:1" />
    <use
       x="0"
       y="0"
       xlink:href="#use86854"
       id="use87584"
       style="fill:#fbfef1;fill-opacity:1" />
    <use
       x="0"
       y="0"
       xlink:href="#use86854"
       transform="matrix(0.94250897,0.11906658,-0.11906658,0.94250897,58.869533,-30.366234)"
       id="use87586"
       style="fill:#fbfef1;fill-opacity:1" />
    <use
       x="0"
       y="0"
       xlink:href="#use87586"
       id="use88316"
       style="fill:#fbfef1;fill-opacity:1" />
    <use
       x="0"
       y="0"
       xlink:href="#use87586"
       transform="matrix(0.94250897,0.11906658,-0.11906658,0.94250897,58.869533,-30.366234)"
       id="use88318"
       style="fill:#fbfef1;fill-opacity:1" />
    <use
       x="0"
       y="0"
       xlink:href="#use88318"
       id="use89048"
       style="fill:#fbfef1;fill-opacity:1" />
    <use
       x="0"
       y="0"
       xlink:href="#use88318"
       transform="matrix(0.94250897,0.11906658,-0.11906658,0.94250897,58.869533,-30.366234)"
       id="use89050"
       style="fill:#fbfef1;fill-opacity:1" />
    <use
       x="0"
       y="0"
       xlink:href="#use89050"
       id="use89780"
       style="fill:#fbfef1;fill-opacity:1" />
    <use
       x="0"
       y="0"
       xlink:href="#use89050"
       transform="matrix(0.94250897,0.11906658,-0.11906658,0.94250897,58.869533,-30.366234)"
       id="use89782"
       style="fill:#fbfef1;fill-opacity:1" />
    <use
       x="0"
       y="0"
       xlink:href="#use89782"
       id="use90512"
       style="fill:#fbfef1;fill-opacity:1" />
    <use
       x="0"
       y="0"
       xlink:href="#use89782"
       transform="matrix(0.94250897,0.11906658,-0.11906658,0.94250897,58.869533,-30.366234)"
       id="use90514"
       style="fill:#fbfef1;fill-opacity:1" />
    <use
       x="0"
       y="0"
       xlink:href="#use90514"
       id="use91244"
       style="fill:#fbfef1;fill-opacity:1" />
    <use
       x="0"
       y="0"
       xlink:href="#use90514"
       transform="matrix(0.94250897,0.11906658,-0.11906658,0.94250897,58.869533,-30.366234)"
       id="use91246"
       style="fill:#fbfef1;fill-opacity:1" />
    <use
       x="0"
       y="0"
       xlink:href="#use91246"
       id="use91976"
       style="fill:#fbfef1;fill-opacity:1" />
    <use
       x="0"
       y="0"
       xlink:href="#use91246"
       transform="matrix(0.94250897,0.11906658,-0.11906658,0.94250897,58.869533,-30.366234)"
       id="use91978"
       style="fill:#fbfef1;fill-opacity:1" />
    <use
       x="0"
       y="0"
       xlink:href="#use91978"
       id="use92708"
       style="fill:#fbfef1;fill-opacity:1" />
    <use
       x="0"
       y="0"
       xlink:href="#use91978"
       transform="matrix(0.94250897,0.11906658,-0.11906658,0.94250897,58.869533,-30.366234)"
       id="use92710"
       style="fill:#fbfef1;fill-opacity:1" />
    <use
       x="0"
       y="0"
       xlink:href="#use92710"
       id="use93440"
       style="fill:#fbfef1;fill-opacity:1" />
    <use
       x="0"
       y="0"
       xlink:href="#use92710"
       transform="matrix(0.94250897,0.11906658,-0.11906658,0.94250897,58.869533,-30.366234)"
       id="use93442"
       style="fill:#fbfef1;fill-opacity:1" />
    <use
       x="0"
       y="0"
       xlink:href="#use93442"
       id="use94172"
       style="fill:#fbfef1;fill-opacity:1" />
    <use
       x="0"
       y="0"
       xlink:href="#use93442"
       transform="matrix(0.94250897,0.11906658,-0.11906658,0.94250897,58.869533,-30.366234)"
       id="use94174"
       style="fill:#fbfef1;fill-opacity:1" />
    <use
       x="0"
       y="0"
       xlink:href="#use94174"
       id="use94904"
       style="fill:#fbfef1;fill-opacity:1" />
    <use
       x="0"
       y="0"
       xlink:href="#use94174"
       transform="matrix(0.94250897,0.11906658,-0.11906658,0.94250897,58.869533,-30.366234)"
       id="use94906"
       style="fill:#fbfef1;fill-opacity:1" />
    <use
       x="0"
       y="0"
       xlink:href="#use94906"
       id="use95636"
       style="fill:#fbfef1;fill-opacity:1" />
    <use
       x="0"
       y="0"
       xlink:href="#use94906"
       transform="matrix(0.94250897,0.11906658,-0.11906658,0.94250897,58.869533,-30.366234)"
       id="use95638"
       style="fill:#fbfef1;fill-opacity:1" />
    <use
       x="0"
       y="0"
       xlink:href="#use95638"
       id="use96368"
       style="fill:#fbfef1;fill-opacity:1" />
    <use
       x="0"
       y="0"
       xlink:href="#use95638"
       transform="matrix(0.94250897,0.11906658,-0.11906658,0.94250897,58.869533,-30.366234)"
       id="use96370"
       style="fill:#fbfef1;fill-opacity:1" />
    <use
       x="0"
       y="0"
       xlink:href="#use96370"
       id="use97100"
       style="fill:#fbfef1;fill-opacity:1" />
    <use
       x="0"
       y="0"
       xlink:href="#use96370"
       transform="matrix(0.94250897,0.11906658,-0.11906658,0.94250897,58.869533,-30.366234)"
       id="use97102"
       style="fill:#fbfef1;fill-opacity:1" />
    <use
       x="0"
       y="0"
       xlink:href="#use97102"
       id="use97832"
       style="fill:#fbfef1;fill-opacity:1" />
    <use
       x="0"
       y="0"
       xlink:href="#use97102"
       transform="matrix(0.94250897,0.11906658,-0.11906658,0.94250897,58.869533,-30.366234)"
       id="use97834"
       style="fill:#fbfef1;fill-opacity:1" />
    <use
       x="0"
       y="0"
       xlink:href="#use97834"
       id="use98564"
       style="fill:#fbfef1;fill-opacity:1" />
    <use
       x="0"
       y="0"
       xlink:href="#use97834"
       transform="matrix(0.94250897,0.11906658,-0.11906658,0.94250897,58.869533,-30.366234)"
       id="use98566"
       style="fill:#fbfef1;fill-opacity:1" />
    <use
       x="0"
       y="0"
       xlink:href="#use98566"
       id="use99296"
       style="fill:#fbfef1;fill-opacity:1" />
    <use
       x="0"
       y="0"
       xlink:href="#use98566"
       transform="matrix(0.94250897,0.11906658,-0.11906658,0.94250897,58.869533,-30.366234)"
       id="use99298"
       style="fill:#fbfef1;fill-opacity:1" />
    <use
       x="0"
       y="0"
       xlink:href="#use99298"
       id="use100028"
       style="fill:#fbfef1;fill-opacity:1" />
    <use
       x="0"
       y="0"
       xlink:href="#use99298"
       transform="matrix(0.94250897,0.11906658,-0.11906658,0.94250897,58.869533,-30.366234)"
       id="use100030"
       style="fill:#fbfef1;fill-opacity:1" />
    <use
       x="0"
       y="0"
       xlink:href="#use100030"
       id="use100760"
       style="fill:#fbfef1;fill-opacity:1" />
    <use
       x="0"
       y="0"
       xlink:href="#use100030"
       transform="matrix(0.94250897,0.11906658,-0.11906658,0.94250897,58.869533,-30.366234)"
       id="use100762"
       style="fill:#fbfef1;fill-opacity:1" />
    <use
       x="0"
       y="0"
       xlink:href="#use100762"
       id="use101492"
       style="fill:#fbfef1;fill-opacity:1" />
    <use
       x="0"
       y="0"
       xlink:href="#use100762"
       transform="matrix(0.94250897,0.11906658,-0.11906658,0.94250897,58.869533,-30.366234)"
       id="use101494"
       style="fill:#fbfef1;fill-opacity:1" />
    <use
       x="0"
       y="0"
       xlink:href="#use101494"
       id="use102224"
       style="fill:#fbfef1;fill-opacity:1" />
    <use
       x="0"
       y="0"
       xlink:href="#use101494"
       transform="matrix(0.94250897,0.11906658,-0.11906658,0.94250897,58.869533,-30.366234)"
       id="use102226"
       style="fill:#fbfef1;fill-opacity:1" />
    <use
       x="0"
       y="0"
       xlink:href="#use102226"
       id="use102956"
       style="fill:#fbfef1;fill-opacity:1" />
    <use
       x="0"
       y="0"
       xlink:href="#use102226"
       transform="matrix(0.94250897,0.11906658,-0.11906658,0.94250897,58.869533,-30.366234)"
       id="use102958"
       style="fill:#fbfef1;fill-opacity:1" />
    <use
       x="0"
       y="0"
       xlink:href="#use102958"
       id="use103688"
       style="fill:#fbfef1;fill-opacity:1" />
    <use
       x="0"
       y="0"
       xlink:href="#use102958"
       transform="matrix(0.94250897,0.11906658,-0.11906658,0.94250897,58.869533,-30.366234)"
       id="use103690"
       style="fill:#fbfef1;fill-opacity:1" />
    <use
       x="0"
       y="0"
       xlink:href="#use103690"
       id="use104420"
       style="fill:#fbfef1;fill-opacity:1" />
    <use
       x="0"
       y="0"
       xlink:href="#use103690"
       transform="matrix(0.94250897,0.11906658,-0.11906658,0.94250897,58.869533,-30.366234)"
       id="use104422"
       style="fill:#fbfef1;fill-opacity:1" />
    <use
       x="0"
       y="0"
       xlink:href="#use104422"
       id="use112381" />
    <use
       x="0"
       y="0"
       xlink:href="#use104422"
       transform="matrix(0.94250897,0.11906657,-0.11906657,0.94250897,58.899097,-30.351678)"
       id="use112383" />
    <use
       x="0"
       y="0"
       xlink:href="#use112383"
       id="use112385" />
    <use
       x="0"
       y="0"
       xlink:href="#use112383"
       transform="matrix(0.94250897,0.11906657,-0.11906657,0.94250897,58.899097,-30.351678)"
       id="use112387" />
    <use
       x="0"
       y="0"
       xlink:href="#use112387"
       id="use112389" />
    <use
       x="0"
       y="0"
       xlink:href="#use112387"
       transform="matrix(0.94250897,0.11906657,-0.11906657,0.94250897,58.899097,-30.351678)"
       id="use112391" />
    <use
       x="0"
       y="0"
       xlink:href="#use112391"
       id="use112393" />
    <use
       x="0"
       y="0"
       xlink:href="#use112391"
       transform="matrix(0.94250897,0.11906657,-0.11906657,0.94250897,58.899097,-30.351678)"
       id="use112395" />
    <use
       x="0"
       y="0"
       xlink:href="#use112395"
       id="use112397" />
    <use
       x="0"
       y="0"
       xlink:href="#use112395"
       transform="matrix(0.94250897,0.11906657,-0.11906657,0.94250897,58.899097,-30.351678)"
       id="use112399" />
    <use
       x="0"
       y="0"
       xlink:href="#use112399"
       id="use112401" />
    <use
       x="0"
       y="0"
       xlink:href="#use112399"
       transform="matrix(0.94250897,0.11906657,-0.11906657,0.94250897,58.899097,-30.351678)"
       id="use112403" />
    <use
       x="0"
       y="0"
       xlink:href="#use112403"
       id="use112405" />
    <use
       x="0"
       y="0"
       xlink:href="#use112403"
       transform="matrix(0.94250897,0.11906657,-0.11906657,0.94250897,58.899097,-30.351678)"
       id="use112407" />
    <use
       x="0"
       y="0"
       xlink:href="#use112407"
       id="use112409" />
    <use
       x="0"
       y="0"
       xlink:href="#use112407"
       transform="matrix(0.94250897,0.11906657,-0.11906657,0.94250897,58.899097,-30.351678)"
       id="use112411" />
    <use
       x="0"
       y="0"
       xlink:href="#use112411"
       id="use112413" />
    <use
       x="0"
       y="0"
       xlink:href="#use112411"
       transform="matrix(0.94250897,0.11906657,-0.11906657,0.94250897,58.899097,-30.351678)"
       id="use112415" />
    <use
       x="0"
       y="0"
       xlink:href="#use112415"
       id="use112417" />
    <use
       x="0"
       y="0"
       xlink:href="#use112415"
       transform="matrix(0.94250897,0.11906657,-0.11906657,0.94250897,58.899097,-30.351678)"
       id="use112419" />
    <use
       x="0"
       y="0"
       xlink:href="#use112419"
       id="use112421" />
    <use
       x="0"
       y="0"
       xlink:href="#use112419"
       transform="matrix(0.94250897,0.11906657,-0.11906657,0.94250897,58.899097,-30.351678)"
       id="use112423" />
    <use
       x="0"
       y="0"
       xlink:href="#use112423"
       id="use112425" />
    <use
       x="0"
       y="0"
       xlink:href="#use112423"
       transform="matrix(0.94250897,0.11906657,-0.11906657,0.94250897,58.899097,-30.351678)"
       id="use112427" />
    <use
       x="0"
       y="0"
       xlink:href="#use112427"
       id="use112429" />
    <use
       x="0"
       y="0"
       xlink:href="#use112427"
       transform="matrix(0.94250897,0.11906657,-0.11906657,0.94250897,58.899097,-30.351678)"
       id="use112431" />
    <use
       x="0"
       y="0"
       xlink:href="#use112431"
       id="use112433" />
    <use
       x="0"
       y="0"
       xlink:href="#use112431"
       transform="matrix(0.94250897,0.11906657,-0.11906657,0.94250897,58.899097,-30.351678)"
       id="use112435" />
    <use
       x="0"
       y="0"
       xlink:href="#use112435"
       id="use112437" />
    <use
       x="0"
       y="0"
       xlink:href="#use112435"
       transform="matrix(0.94250897,0.11906657,-0.11906657,0.94250897,58.899097,-30.351678)"
       id="use112439" />
    <use
       x="0"
       y="0"
       xlink:href="#use112439"
       id="use112441" />
    <use
       x="0"
       y="0"
       xlink:href="#use112439"
       transform="matrix(0.94250897,0.11906657,-0.11906657,0.94250897,58.899097,-30.351678)"
       id="use112443" />
    <use
       x="0"
       y="0"
       xlink:href="#use112443"
       id="use112445" />
    <use
       x="0"
       y="0"
       xlink:href="#use112443"
       transform="matrix(0.94250897,0.11906657,-0.11906657,0.94250897,58.899097,-30.351678)"
       id="use112447" />
    <use
       x="0"
       y="0"
       xlink:href="#use112447"
       id="use112449" />
    <use
       x="0"
       y="0"
       xlink:href="#use112447"
       transform="matrix(0.94250897,0.11906657,-0.11906657,0.94250897,58.899097,-30.351678)"
       id="use112451" />
    <use
       x="0"
       y="0"
       xlink:href="#use112451"
       id="use112453" />
    <use
       x="0"
       y="0"
       xlink:href="#use112451"
       transform="matrix(0.94250897,0.11906657,-0.11906657,0.94250897,58.899097,-30.351678)"
       id="use112455" />
    <use
       x="0"
       y="0"
       xlink:href="#use112455"
       id="use112457" />
    <use
       x="0"
       y="0"
       xlink:href="#use112455"
       transform="matrix(0.94250897,0.11906657,-0.11906657,0.94250897,58.899097,-30.351678)"
       id="use112459" />
    <use
       x="0"
       y="0"
       xlink:href="#use112459"
       id="use112461" />
    <use
       x="0"
       y="0"
       xlink:href="#use112459"
       transform="matrix(0.94250897,0.11906657,-0.11906657,0.94250897,58.899097,-30.351678)"
       id="use112463" />
    <use
       x="0"
       y="0"
       xlink:href="#use112463"
       id="use112465" />
    <use
       x="0"
       y="0"
       xlink:href="#use112463"
       transform="matrix(0.94250897,0.11906657,-0.11906657,0.94250897,58.899097,-30.351678)"
       id="use112467" />
    <use
       x="0"
       y="0"
       xlink:href="#use112467"
       id="use112469" />
    <use
       x="0"
       y="0"
       xlink:href="#use112467"
       transform="matrix(0.94250897,0.11906657,-0.11906657,0.94250897,58.899097,-30.351678)"
       id="use112471" />
    <use
       x="0"
       y="0"
       xlink:href="#use112471"
       id="use112473" />
    <use
       x="0"
       y="0"
       xlink:href="#use112471"
       transform="matrix(0.94250897,0.11906657,-0.11906657,0.94250897,58.899097,-30.351678)"
       id="use112475" />
    <use
       x="0"
       y="0"
       xlink:href="#use112475"
       id="use112477" />
    <use
       x="0"
       y="0"
       xlink:href="#use112475"
       transform="matrix(0.94250897,0.11906657,-0.11906657,0.94250897,58.899097,-30.351678)"
       id="use112479" />
    <use
       x="0"
       y="0"
       xlink:href="#use112479"
       id="use112481" />
    <use
       x="0"
       y="0"
       xlink:href="#use112479"
       transform="matrix(0.94250897,0.11906657,-0.11906657,0.94250897,58.899097,-30.351678)"
       id="use112483" />
    <use
       x="0"
       y="0"
       xlink:href="#use112483"
       id="use112485" />
    <use
       x="0"
       y="0"
       xlink:href="#use112483"
       transform="matrix(0.94250897,0.11906657,-0.11906657,0.94250897,58.899097,-30.351678)"
       id="use112487" />
    <use
       x="0"
       y="0"
       xlink:href="#use112487"
       id="use112489" />
    <use
       x="0"
       y="0"
       xlink:href="#use112487"
       transform="matrix(0.94250897,0.11906657,-0.11906657,0.94250897,58.899097,-30.351678)"
       id="use112491" />
    <use
       x="0"
       y="0"
       xlink:href="#use112491"
       id="use112493" />
    <use
       x="0"
       y="0"
       xlink:href="#use112491"
       transform="matrix(0.94250897,0.11906657,-0.11906657,0.94250897,58.899097,-30.351678)"
       id="use112495" />
    <use
       x="0"
       y="0"
       xlink:href="#use112495"
       id="use112497" />
    <use
       x="0"
       y="0"
       xlink:href="#use112495"
       transform="matrix(0.94250897,0.11906657,-0.11906657,0.94250897,58.899097,-30.351678)"
       id="use112499" />
    <use
       x="0"
       y="0"
       xlink:href="#use112499"
       id="use112501" />
    <use
       x="0"
       y="0"
       xlink:href="#use112499"
       transform="matrix(0.94250897,0.11906657,-0.11906657,0.94250897,58.899097,-30.351678)"
       id="use112503" />
    <use
       x="0"
       y="0"
       xlink:href="#use112503"
       id="use112505" />
    <use
       x="0"
       y="0"
       xlink:href="#use112503"
       transform="matrix(0.94250897,0.11906657,-0.11906657,0.94250897,58.899097,-30.351678)"
       id="use112507" />
    <use
       x="0"
       y="0"
       xlink:href="#use112507"
       id="use112509" />
    <use
       x="0"
       y="0"
       xlink:href="#use112507"
       transform="matrix(0.94250897,0.11906657,-0.11906657,0.94250897,58.899097,-30.351678)"
       id="use112511" />
    <use
       x="0"
       y="0"
       xlink:href="#use112511"
       id="use112513" />
    <use
       x="0"
       y="0"
       xlink:href="#use112511"
       transform="matrix(0.94250897,0.11906657,-0.11906657,0.94250897,58.899097,-30.351678)"
       id="use112515" />
    <use
       x="0"
       y="0"
       xlink:href="#use112515"
       id="use112517" />
    <use
       x="0"
       y="0"
       xlink:href="#use112515"
       transform="matrix(0.94250897,0.11906657,-0.11906657,0.94250897,58.899097,-30.351678)"
       id="use112519" />
    <use
       x="0"
       y="0"
       xlink:href="#use112519"
       id="use112521" />
    <use
       x="0"
       y="0"
       xlink:href="#use112519"
       transform="matrix(0.94250897,0.11906657,-0.11906657,0.94250897,58.899097,-30.351678)"
       id="use112523" />
    <use
       x="0"
       y="0"
       xlink:href="#use112523"
       id="use112525" />
    <use
       x="0"
       y="0"
       xlink:href="#use112523"
       transform="matrix(0.94250897,0.11906657,-0.11906657,0.94250897,58.899097,-30.351678)"
       id="use112527" />
    <use
       x="0"
       y="0"
       xlink:href="#use112527"
       id="use112529" />
    <use
       x="0"
       y="0"
       xlink:href="#use112527"
       transform="matrix(0.94250897,0.11906657,-0.11906657,0.94250897,58.899097,-30.351678)"
       id="use112531" />
    <use
       x="0"
       y="0"
       xlink:href="#use112531"
       id="use112533" />
    <use
       x="0"
       y="0"
       xlink:href="#use112531"
       transform="matrix(0.94250897,0.11906657,-0.11906657,0.94250897,58.899097,-30.351678)"
       id="use112535" />
    <use
       x="0"
       y="0"
       xlink:href="#use112535"
       id="use112537" />
    <use
       x="0"
       y="0"
       xlink:href="#use112535"
       transform="matrix(0.94250897,0.11906657,-0.11906657,0.94250897,58.899097,-30.351678)"
       id="use112539" />
    <use
       x="0"
       y="0"
       xlink:href="#use112539"
       id="use112541" />
    <use
       x="0"
       y="0"
       xlink:href="#use112539"
       transform="matrix(0.94250897,0.11906657,-0.11906657,0.94250897,58.899097,-30.351678)"
       id="use112543" />
    <use
       x="0"
       y="0"
       xlink:href="#use112543"
       id="use112545" />
    <use
       x="0"
       y="0"
       xlink:href="#use112543"
       transform="matrix(0.94250897,0.11906657,-0.11906657,0.94250897,58.899097,-30.351678)"
       id="use112547" />
    <use
       x="0"
       y="0"
       xlink:href="#use112547"
       id="use112549" />
    <use
       x="0"
       y="0"
       xlink:href="#use112547"
       transform="matrix(0.94250897,0.11906657,-0.11906657,0.94250897,58.899097,-30.351678)"
       id="use112551" />
    <use
       x="0"
       y="0"
       xlink:href="#use112551"
       id="use112553" />
    <use
       x="0"
       y="0"
       xlink:href="#use112551"
       transform="matrix(0.94250897,0.11906657,-0.11906657,0.94250897,58.899097,-30.351678)"
       id="use112555" />
    <use
       x="0"
       y="0"
       xlink:href="#use112555"
       id="use112557" />
    <use
       x="0"
       y="0"
       xlink:href="#use112555"
       transform="matrix(0.94250897,0.11906657,-0.11906657,0.94250897,58.899097,-30.351678)"
       id="use112559" />
    <use
       x="0"
       y="0"
       xlink:href="#use112559"
       id="use112561" />
    <use
       x="0"
       y="0"
       xlink:href="#use112559"
       transform="matrix(0.94250897,0.11906657,-0.11906657,0.94250897,58.899097,-30.351678)"
       id="use112563" />
    <use
       x="0"
       y="0"
       xlink:href="#use112563"
       id="use112565" />
    <use
       x="0"
       y="0"
       xlink:href="#use112563"
       transform="matrix(0.94250897,0.11906657,-0.11906657,0.94250897,58.899097,-30.351678)"
       id="use112567" />
  </g>
</svg>
